<?xml version="1.0" standalone="yes"?>
<svg xmlns="http://www.w3.org/2000/svg" width="512" height="512">
<path style="fill:#000000; stroke:none;" d="M0 0L0 512C8.0449 511.737 12.6582 504.342 18 499L52 465C57.4074 459.593 61.8765 453.264 70 453L34 489C26.5444 496.456 19.4002 504.6 11 511C23.1068 516.08 30.2888 506.711 38 499L72 465C77.4074 459.593 81.8765 453.264 90 453L54 489C46.5444 496.456 39.4002 504.6 31 511C43.1068 516.08 50.2888 506.711 58 499L92 465C97.4074 459.593 101.877 453.264 110 453L74 489C66.5444 496.456 59.4002 504.6 51 511C63.1068 516.08 70.2888 506.711 78 499L112 465C117.407 459.593 121.877 453.264 130 453L94 489C86.5444 496.456 79.4002 504.6 71 511C83.1068 516.08 90.2888 506.711 98 499L132 465C137.407 459.593 141.877 453.264 150 453L114 489C106.544 496.456 99.4002 504.6 91 511C103.107 516.08 110.289 506.711 118 499L152 465C157.407 459.593 161.877 453.264 170 453L134 489C126.544 496.456 119.4 504.6 111 511C123.107 516.08 130.289 506.711 138 499L172 465C177.407 459.593 181.877 453.264 190 453L154 489C146.544 496.456 139.4 504.6 131 511C143.107 516.08 150.289 506.711 158 499L192 465C197.407 459.593 201.877 453.264 210 453L174 489C166.544 496.456 159.4 504.6 151 511C163.107 516.08 170.289 506.711 178 499L212 465C217.407 459.593 221.877 453.264 230 453L194 489C186.544 496.456 179.4 504.6 171 511C183.107 516.08 190.289 506.711 198 499L232 465C237.407 459.593 241.877 453.264 250 453L214 489C206.544 496.456 199.4 504.6 191 511C203.107 516.08 210.289 506.711 218 499L252 465C257.407 459.593 261.877 453.264 270 453L234 489C226.544 496.456 219.4 504.6 211 511C223.107 516.08 230.289 506.711 238 499L272 465C277.407 459.593 281.877 453.264 290 453L254 489C246.544 496.456 239.4 504.6 231 511C243.107 516.08 250.289 506.711 258 499L292 465C297.407 459.593 301.877 453.264 310 453L274 489C266.544 496.456 259.4 504.6 251 511C263.107 516.08 270.289 506.711 278 499L312 465C317.407 459.593 321.877 453.264 330 453L294 489C286.544 496.456 279.4 504.6 271 511C283.107 516.08 290.289 506.711 298 499L332 465C337.407 459.593 341.877 453.264 350 453L314 489C306.544 496.456 299.4 504.6 291 511C303.107 516.08 310.289 506.711 318 499L352 465C357.407 459.593 361.877 453.264 370 453L334 489C326.544 496.456 319.4 504.6 311 511C323.107 516.08 330.289 506.711 338 499L372 465C377.407 459.593 381.877 453.264 390 453L354 489C346.544 496.456 339.4 504.6 331 511C343.107 516.08 350.289 506.711 358 499L392 465C397.407 459.593 401.877 453.264 410 453L374 489C366.544 496.456 359.4 504.6 351 511C363.107 516.08 370.289 506.711 378 499L412 465C417.407 459.593 421.876 453.264 430 453L394 489C386.544 496.456 379.4 504.6 371 511C383.107 516.08 390.289 506.711 398 499L432 465C437.407 459.593 441.877 453.264 450 453L414 489C406.544 496.456 399.4 504.6 391 511C403.107 516.08 410.289 506.711 418 499L452 465C457.407 459.593 461.877 453.264 470 453L434 489C426.544 496.456 419.4 504.6 411 511C423.107 516.08 430.289 506.711 438 499L470 467C474.987 462.013 480.028 454.957 487 453C490.322 441.164 505.146 435.993 510.972 425.715C513.187 421.807 512 415.356 512 411C503.174 418.634 495.268 427.732 487 436C487.448 422.179 504.79 416.62 510.972 405.715C513.187 401.807 512 395.356 512 391C503.174 398.634 495.268 407.732 487 416C487.448 402.179 504.79 396.62 510.972 385.715C513.187 381.807 512 375.356 512 371C503.174 378.634 495.268 387.732 487 396C487.448 382.179 504.79 376.62 510.972 365.715C513.187 361.807 512 355.356 512 351C503.174 358.634 495.268 367.732 487 376C487.448 362.179 504.79 356.62 510.972 345.715C513.187 341.807 512 335.356 512 331C503.176 338.633 495.266 347.734 487 356C482.075 360.924 478.32 365.762 471 366L499 338C502.751 334.249 509.365 329.816 511.397 324.83C512.999 320.897 512 315.188 512 311C497.532 323.515 484.547 338.453 471 352C465.146 357.854 459.846 365.713 451 366L491 326C495.664 321.336 500.294 316.636 504.999 312.015C507.18 309.873 510.21 307.743 511.397 304.83C512.999 300.897 512 295.188 512 291C492.236 308.096 474.5 328.5 456 347C449.124 353.876 441.414 365.662 431 366L488 309L504 293.004C506.445 290.583 510.063 288.104 511.397 284.83C512.999 280.897 512 275.188 512 271C503.174 278.634 495.268 287.732 487 296C487.448 282.179 504.79 276.62 510.972 265.715C513.187 261.807 512 255.356 512 251C503.175 258.634 495.268 267.732 487 276C487.448 262.179 504.79 256.62 510.972 245.715C513.187 241.807 512 235.356 512 231C503.175 238.634 495.268 247.732 487 256C487.448 242.179 504.79 236.62 510.972 225.715C513.187 221.807 512 215.356 512 211C503.175 218.634 495.268 227.732 487 236C487.448 222.179 504.79 216.62 510.972 205.715C513.187 201.807 512 195.356 512 191C503.175 198.634 495.268 207.732 487 216C486.69 213.753 486.336 212.826 485 211C492.071 206.019 497.863 199.08 504 193.004C506.445 190.583 510.063 188.104 511.397 184.83C512.999 180.897 512 175.188 512 171C501.413 180.158 491.916 191.084 482 201C476.829 206.171 472.733 211.749 465 212L498 179C502.012 174.988 509.228 170.152 511.397 164.83C512.999 160.897 512 155.188 512 151C496.12 164.736 481.868 181.132 467 196C460.724 202.276 454.507 211.692 445 212L490 167C494.997 162.003 499.958 156.967 504.999 152.015C507.18 149.872 510.21 147.743 511.397 144.83C512.999 140.897 512 135.188 512 131C490.824 149.317 471.822 171.178 452 191C444.74 198.26 435.975 211.644 425 212L488 149L504 133.004C506.445 130.583 510.063 128.104 511.397 124.83C512.999 120.897 512 115.188 512 111C503.175 118.634 495.268 127.732 487 136C487.448 122.179 504.79 116.62 510.972 105.715C513.187 101.807 512 95.3561 512 91C503.175 98.6341 495.268 107.732 487 116C487.448 102.179 504.79 96.6196 510.972 85.7145C513.187 81.8073 512 75.3561 512 71C503.175 78.6341 495.268 87.7323 487 96C487.448 82.1789 504.79 76.6196 510.972 65.7145C513.187 61.8073 512 55.3562 512 51C503.175 58.6341 495.268 67.7323 487 76C487.448 62.1789 504.79 56.6196 510.972 45.7145C513.187 41.8073 512 35.3562 512 31C505.288 36.8063 499.29 43.7126 493 50C488.335 54.6632 484.88 58.7768 478 59L501 36C504.229 32.7723 509.64 29.1413 511.397 24.8302C512.999 20.8971 512 15.1879 512 11C499.649 21.6834 488.566 34.4342 477 46C471.366 51.6345 466.494 58.7244 458 59L498 19C503.539 13.4614 511.727 8.34967 512 0L0 0z"/>
<path style="fill:#444440; stroke:none;" d="M1 21C8.6588 17.0269 17.0269 8.65878 21 1C11.5732 1.6326 1.63262 11.5731 1 21M1 41C9.18817 36.7523 15.5323 28.4677 22 22C28.4677 15.5323 36.7523 9.18817 41 1C33.9089 1.47586 29.8087 6.19897 25 11C19.3329 16.658 13.6006 22.2617 8.01466 28C4.14239 31.9779 1.37853 35.3594 1 41M1 61C9.18818 56.7523 15.5323 48.4677 22 42L47 17C51.9826 12.0174 57.7258 7.31152 61 1C53.469 1.50537 49.0717 6.9303 44 12L13 43C7.67497 48.3254 1.53346 53.0507 1 61M1 81C11.0212 75.8014 19.0714 64.9286 27 57L63 21C69.1732 14.8268 76.9446 8.81741 81 1C71.5546 1.63385 65.2608 10.7392 59 17L16 60C9.96316 66.0368 1.61029 71.9059 1 81M38 59C47.1662 58.8918 51.8983 52.1017 58 46L86 18C91.2826 12.7174 97.5284 7.69205 101 1C92.2712 1.58575 86.8069 9.19305 81 15L54 42C48.5401 47.4599 42.4536 52.6776 38 59M58 59C67.1662 58.8918 71.8983 52.1017 78 46L106 18C111.283 12.7174 117.528 7.69205 121 1C112.271 1.58575 106.807 9.19305 101 15L74 42C68.5401 47.4599 62.4536 52.6776 58 59M78 59C87.1662 58.8918 91.8983 52.1017 98 46L126 18C131.283 12.7174 137.528 7.69211 141 1C132.271 1.58575 126.807 9.19308 121 15L94 42C88.5401 47.4599 82.4536 52.6776 78 59M98 59C107.166 58.8918 111.898 52.1017 118 46L146 18C151.283 12.7174 157.528 7.69214 161 1C152.271 1.58575 146.807 9.19308 141 15L114 42C108.54 47.4599 102.454 52.6776 98 59M118 59C127.166 58.8918 131.898 52.1017 138 46L166 18C171.283 12.7174 177.528 7.69211 181 1C172.271 1.58575 166.807 9.19308 161 15L134 42C128.54 47.4599 122.454 52.6776 118 59M138 59C147.166 58.8918 151.898 52.1017 158 46L186 18C191.283 12.7174 197.528 7.69211 201 1C192.271 1.58575 186.807 9.19308 181 15L154 42C148.54 47.4599 142.454 52.6776 138 59M158 59C167.166 58.8918 171.898 52.1017 178 46L206 18C211.283 12.7174 217.528 7.69211 221 1C212.271 1.58575 206.807 9.19308 201 15L174 42C168.54 47.4599 162.454 52.6776 158 59M178 59C187.166 58.8918 191.898 52.1017 198 46L226 18C231.283 12.7174 237.528 7.69211 241 1C232.271 1.58575 226.807 9.19308 221 15L194 42C188.54 47.4599 182.454 52.6776 178 59M198 59C207.166 58.8918 211.898 52.1017 218 46L246 18C251.283 12.7174 257.528 7.69211 261 1C252.271 1.58575 246.807 9.19305 241 15L214 42C208.54 47.4599 202.454 52.6776 198 59M218 59C227.166 58.8918 231.898 52.1017 238 46L266 18C271.283 12.7174 277.528 7.69211 281 1C272.271 1.58575 266.807 9.19308 261 15L234 42C228.54 47.4599 222.454 52.6776 218 59M238 59C247.166 58.8918 251.898 52.1017 258 46L286 18C291.283 12.7174 297.528 7.69211 301 1C292.271 1.58575 286.807 9.19308 281 15L254 42C248.54 47.4599 242.454 52.6776 238 59M258 59C267.166 58.8918 271.898 52.1017 278 46L306 18C311.283 12.7174 317.528 7.69214 321 1C312.271 1.58575 306.807 9.19308 301 15L274 42C268.54 47.4599 262.454 52.6776 258 59M278 59C287.166 58.8918 291.898 52.1017 298 46L326 18C331.283 12.7175 337.528 7.69211 341 1C332.271 1.58575 326.807 9.19308 321 15L294 42C288.54 47.4599 282.454 52.6776 278 59M298 59C307.166 58.8918 311.898 52.1017 318 46L346 18C351.283 12.7175 357.528 7.69211 361 1C352.271 1.58575 346.807 9.19308 341 15L314 42C308.54 47.4599 302.454 52.6776 298 59M318 59C327.166 58.8918 331.898 52.1017 338 46L366 18C371.283 12.7175 377.528 7.69214 381 1C372.271 1.58575 366.807 9.19308 361 15L334 42C328.54 47.4599 322.454 52.6776 318 59M338 59C347.166 58.8918 351.898 52.1017 358 46L386 18C391.283 12.7174 397.528 7.69214 401 1C392.271 1.58575 386.807 9.19308 381 15L354 42C348.54 47.4599 342.454 52.6776 338 59M358 59C367.166 58.8918 371.898 52.1017 378 46L406 18C411.283 12.7174 417.528 7.69211 421 1C412.271 1.58575 406.807 9.19308 401 15L374 42C368.54 47.4599 362.454 52.6776 358 59M378 59C387.166 58.8918 391.898 52.1017 398 46L426 18C431.283 12.7175 437.528 7.69211 441 1C432.271 1.58575 426.807 9.19308 421 15L394 42C388.54 47.4599 382.454 52.6776 378 59M398 59C407.166 58.8918 411.898 52.1017 418 46L446 18C451.283 12.7175 457.528 7.69211 461 1C452.271 1.58575 446.807 9.19308 441 15L414 42C408.54 47.4599 402.454 52.6776 398 59M418 59C427.166 58.8918 431.898 52.1017 438 46L466 18C471.283 12.7174 477.528 7.69211 481 1C472.271 1.58575 466.807 9.19308 461 15L434 42C428.54 47.4599 422.454 52.6776 418 59M438 59C447.166 58.8918 451.898 52.1017 458 46L486 18C491.283 12.7174 497.528 7.69211 501 1C492.271 1.58575 486.807 9.19308 481 15L454 42C448.54 47.4599 442.454 52.6776 438 59M511 6C500.047 14.3455 490.726 25.2741 481 35C473.307 42.6925 464.271 50.0973 458 59C466.36 58.9013 470.377 53.6227 476 48L502 22C506.05 17.9431 513.417 12.4034 511 6M511 26C499.461 34.792 486.356 47.1378 478 59C489.378 58.8656 497.573 46.615 504.985 39C508.433 35.4583 512.977 31.2382 511 26M511 46C502.042 52.825 487.142 64.0122 487 76C494.305 70.8541 500.883 63.5988 506.906 57C509.82 53.8068 512.643 50.3531 511 46M511 66C502.042 72.825 487.142 84.0121 487 96C494.305 90.8541 500.883 83.5988 506.906 77C509.82 73.8068 512.643 70.3531 511 66M24 72C16.2674 79.7325 1.7809 89.3636 1 101C8.03762 97.3492 13.4887 90.6121 18.9954 85C22.6993 81.2252 26.2496 77.4259 24 72M511 86C502.042 92.825 487.142 104.012 487 116C494.305 110.854 500.883 103.599 506.906 97C509.82 93.8068 512.643 90.3531 511 86M24 92C16.2674 99.7325 1.7809 109.364 1 121C8.03765 117.349 13.4886 110.612 18.9954 105C22.6993 101.225 26.2496 97.4259 24 92M511 106C502.042 112.825 487.142 124.012 487 136C494.305 130.854 500.883 123.599 506.906 117C509.82 113.807 512.643 110.353 511 106M24 112C16.2674 119.733 1.7809 129.364 1 141C8.03762 137.349 13.4887 130.612 18.9954 125C22.6993 121.225 26.2496 117.426 24 112M511 126C493.5 139.334 478.552 157.448 463 173C450.542 185.458 435.146 197.597 425 212C435.234 211.879 441.242 202.758 448 196L495 149C500.089 143.911 514.125 134.278 511 126M24 132C16.2674 139.733 1.7809 149.364 1 161C8.03763 157.349 13.4887 150.612 18.9954 145C22.6993 141.225 26.2496 137.426 24 132M1 181C7.3115 177.726 12.0174 171.983 17 167C23.737 160.263 31.5063 153.799 37 146C25.5431 146.135 17.5343 158.429 10.0008 166C5.4856 170.537 1.44485 174.371 1 181M1 201C9.55731 196.561 16.2387 187.761 23 181C34.1884 169.812 47.8865 158.938 57 146C48.6398 146.099 44.6226 151.377 39 157L11 185C6.19896 189.809 1.47587 193.909 1 201M1 221C11.7476 215.425 20.4908 203.509 29 195L60 164C65.7797 158.22 72.2859 152.692 77 146C67.4614 146.113 62.3273 153.673 56 160L16 200C9.96317 206.037 1.61029 211.906 1 221M1 241C6.14609 238.33 9.93042 234.069 14 230C19.6228 224.378 24.9013 220.36 25 212C35.2343 211.879 41.2421 202.758 48 196L79 165C85.099 158.901 92.0257 153.062 97 146C86.1238 146.128 79.1674 156.833 72 164L20 216C13.095 222.905 1.70002 230.569 1 241M45 212C55.2343 211.879 61.2421 202.758 68 196L99 165C105.099 158.901 112.026 153.062 117 146C106.766 146.121 100.758 155.242 94 162L63 193C56.901 199.099 49.9743 204.938 45 212M65 212C75.2343 211.879 81.2421 202.758 88 196L119 165C125.099 158.901 132.026 153.062 137 146C126.766 146.121 120.758 155.242 114 162L83 193C76.901 199.099 69.9743 204.938 65 212M85 212C95.2343 211.879 101.242 202.758 108 196L139 165C145.099 158.901 152.026 153.062 157 146C146.766 146.121 140.758 155.242 134 162L103 193C96.901 199.099 89.9743 204.938 85 212M105 212C115.234 211.879 121.242 202.758 128 196L159 165C165.099 158.901 172.026 153.062 177 146C166.766 146.121 160.758 155.242 154 162L123 193C116.901 199.099 109.974 204.938 105 212M125 212C135.234 211.879 141.242 202.758 148 196L179 165C185.099 158.901 192.026 153.062 197 146C186.766 146.121 180.758 155.242 174 162L143 193C136.901 199.099 129.974 204.938 125 212M145 212C155.234 211.879 161.242 202.758 168 196L199 165C205.099 158.901 212.026 153.062 217 146C206.766 146.121 200.758 155.242 194 162L163 193C156.901 199.099 149.974 204.938 145 212M165 212C175.234 211.879 181.242 202.758 188 196L219 165C225.099 158.901 232.026 153.062 237 146C226.766 146.121 220.758 155.242 214 162L183 193C176.901 199.099 169.974 204.938 165 212M185 212C195.234 211.879 201.242 202.758 208 196L239 165C245.099 158.901 252.026 153.062 257 146C246.766 146.121 240.758 155.242 234 162L203 193C196.901 199.099 189.974 204.938 185 212M205 212C215.234 211.879 221.242 202.758 228 196L259 165C265.099 158.901 272.026 153.062 277 146C266.766 146.121 260.758 155.242 254 162L223 193C216.901 199.099 209.974 204.938 205 212M225 212C235.234 211.879 241.242 202.758 248 196L279 165C285.099 158.901 292.026 153.062 297 146C286.766 146.121 280.758 155.242 274 162L243 193C236.901 199.099 229.974 204.938 225 212M245 212C255.234 211.879 261.242 202.758 268 196L299 165C305.099 158.901 312.026 153.062 317 146C306.766 146.121 300.758 155.242 294 162L263 193C256.901 199.099 249.974 204.938 245 212M265 212C275.234 211.879 281.242 202.758 288 196L319 165C325.099 158.901 332.026 153.062 337 146C326.766 146.121 320.758 155.242 314 162L283 193C276.901 199.099 269.974 204.938 265 212M285 212C295.234 211.879 301.242 202.758 308 196L339 165C345.099 158.901 352.026 153.062 357 146C346.766 146.121 340.758 155.242 334 162L303 193C296.901 199.099 289.974 204.938 285 212M305 212C315.234 211.879 321.242 202.758 328 196L359 165C365.099 158.901 372.026 153.062 377 146C366.766 146.121 360.758 155.242 354 162L323 193C316.901 199.099 309.974 204.938 305 212M325 212C335.234 211.879 341.242 202.758 348 196L379 165C385.099 158.901 392.026 153.062 397 146C386.766 146.121 380.758 155.242 374 162L343 193C336.901 199.099 329.974 204.938 325 212M345 212C355.234 211.879 361.242 202.758 368 196L399 165C405.099 158.901 412.026 153.062 417 146C406.766 146.121 400.758 155.242 394 162L363 193C356.901 199.099 349.974 204.938 345 212M365 212C375.234 211.879 381.242 202.758 388 196L419 165C425.099 158.901 432.026 153.062 437 146C426.766 146.121 420.758 155.242 414 162L383 193C376.901 199.099 369.974 204.938 365 212M385 212C395.234 211.879 401.242 202.758 408 196L439 165C445.099 158.901 452.026 153.062 457 146C446.766 146.121 440.758 155.242 434 162L403 193C396.901 199.099 389.974 204.938 385 212M405 212C415.234 211.879 421.242 202.758 428 196L459 165C465.099 158.901 472.026 153.062 477 146C466.766 146.121 460.758 155.242 454 162L423 193C416.901 199.099 409.974 204.938 405 212M511 146C497.499 156.287 485.993 170.007 474 182C464.4 191.6 452.823 200.895 445 212C454.166 211.892 458.898 205.102 465 199L499 165C503.529 160.471 513.767 153.33 511 146M511 166C501.505 173.235 493.429 182.571 485 191C478.263 197.737 470.494 204.201 465 212C472.921 211.906 476.635 207.365 482 202L502.999 181C506.868 177.112 513.281 172.042 511 166M511 186C501.504 193.236 493.431 202.569 485 211C486.006 212.731 486.546 214.053 487 216C494.305 210.854 500.883 203.599 506.906 197C509.82 193.807 512.643 190.353 511 186M511 206C502.042 212.825 487.142 224.012 487 236C494.305 230.854 500.883 223.599 506.906 217C509.82 213.807 512.643 210.353 511 206M511 226C502.042 232.825 487.142 244.012 487 256C494.305 250.854 500.883 243.599 506.906 237C509.82 233.807 512.643 230.353 511 226M24 232C16.2674 239.733 1.7809 249.364 1 261C8.03763 257.349 13.4887 250.612 18.9954 245C22.6993 241.225 26.2496 237.426 24 232M511 246C502.042 252.825 487.142 264.012 487 276C494.305 270.854 500.883 263.599 506.906 257C509.82 253.807 512.643 250.353 511 246M24 252C16.2674 259.733 1.7809 269.364 1 281C8.03763 277.349 13.4887 270.612 18.9954 265C22.6993 261.225 26.2496 257.426 24 252M511 266C502.042 272.825 487.142 284.012 487 296C494.305 290.854 500.883 283.599 506.906 277C509.82 273.807 512.643 270.353 511 266M24 272C16.2674 279.733 1.7809 289.364 1 301C8.03762 297.349 13.4887 290.612 18.9954 285C22.6993 281.225 26.2496 277.426 24 272M511 286C494.59 298.503 480.581 315.419 466 330C454.494 341.506 440.372 352.696 431 366C440.894 365.883 446.454 357.546 453 351L496 308C500.955 303.045 514.044 294.065 511 286M24 292C16.2674 299.733 1.7809 309.364 1 321C8.03763 317.349 13.4887 310.612 18.9954 305C22.6993 301.225 26.2496 297.426 24 292M1 341C8.06968 337.333 13.4192 330.581 19 325C27.0107 316.989 36.47 309.27 43 300C35.0795 300.094 31.365 304.635 26 310C20.3341 315.665 14.6342 321.299 9.00386 327C4.79691 331.26 1.41233 334.856 1 341M1 361C10.2915 356.18 17.6538 346.346 25 339C37.4583 326.542 52.8544 314.403 63 300C54.2256 300.104 49.8674 306.133 44 312L13 343C7.67497 348.325 1.53346 353.051 1 361M1 381C12.1099 375.237 21.2011 362.799 30 354L64 320C70.4182 313.582 77.7658 307.431 83 300C73.106 300.117 67.5457 308.454 61 315L17 359C10.7391 365.261 1.63387 371.555 1 381M31 366C41.2343 365.879 47.2421 356.758 54 350L85 319C91.0991 312.901 98.0257 307.062 103 300C92.7657 300.121 86.7579 309.242 80 316L49 347C42.901 353.099 35.9743 358.938 31 366M51 366C61.2343 365.879 67.2421 356.758 74 350L105 319C111.099 312.901 118.026 307.062 123 300C112.766 300.121 106.758 309.242 100 316L69 347C62.901 353.099 55.9743 358.938 51 366M71 366C81.2343 365.879 87.2421 356.758 94 350L125 319C131.099 312.901 138.026 307.062 143 300C132.766 300.121 126.758 309.242 120 316L89 347C82.901 353.099 75.9743 358.938 71 366M91 366C101.234 365.879 107.242 356.758 114 350L145 319C151.099 312.901 158.026 307.062 163 300C152.766 300.121 146.758 309.242 140 316L109 347C102.901 353.099 95.9743 358.938 91 366M111 366C121.234 365.879 127.242 356.758 134 350L165 319C171.099 312.901 178.026 307.062 183 300C172.766 300.121 166.758 309.242 160 316L129 347C122.901 353.099 115.974 358.938 111 366M131 366C141.234 365.879 147.242 356.758 154 350L185 319C191.099 312.901 198.026 307.062 203 300C192.766 300.121 186.758 309.242 180 316L149 347C142.901 353.099 135.974 358.938 131 366M151 366C161.234 365.879 167.242 356.758 174 350L205 319C211.099 312.901 218.026 307.062 223 300C212.766 300.121 206.758 309.242 200 316L169 347C162.901 353.099 155.974 358.938 151 366M171 366C181.234 365.879 187.242 356.758 194 350L225 319C231.099 312.901 238.026 307.062 243 300C232.766 300.121 226.758 309.242 220 316L189 347C182.901 353.099 175.974 358.938 171 366M191 366C201.234 365.879 207.242 356.758 214 350L245 319C251.099 312.901 258.026 307.062 263 300C252.766 300.121 246.758 309.242 240 316L209 347C202.901 353.099 195.974 358.938 191 366M211 366C221.234 365.879 227.242 356.758 234 350L265 319C271.099 312.901 278.026 307.062 283 300C272.766 300.121 266.758 309.242 260 316L229 347C222.901 353.099 215.974 358.938 211 366M231 366C241.234 365.879 247.242 356.758 254 350L285 319C291.099 312.901 298.026 307.062 303 300C292.766 300.121 286.758 309.242 280 316L249 347C242.901 353.099 235.974 358.938 231 366M251 366C261.234 365.879 267.242 356.758 274 350L305 319C311.099 312.901 318.026 307.062 323 300C312.766 300.121 306.758 309.242 300 316L269 347C262.901 353.099 255.974 358.938 251 366M271 366C281.234 365.879 287.242 356.758 294 350L325 319C331.099 312.901 338.026 307.062 343 300C332.766 300.121 326.758 309.242 320 316L289 347C282.901 353.099 275.974 358.938 271 366M291 366C301.234 365.879 307.242 356.758 314 350L345 319C351.099 312.901 358.026 307.062 363 300C352.766 300.121 346.758 309.242 340 316L309 347C302.901 353.099 295.974 358.938 291 366M311 366C321.234 365.879 327.242 356.758 334 350L365 319C371.099 312.901 378.026 307.062 383 300C372.766 300.121 366.758 309.242 360 316L329 347C322.901 353.099 315.974 358.938 311 366M331 366C341.234 365.879 347.242 356.758 354 350L385 319C391.099 312.901 398.026 307.062 403 300C392.766 300.121 386.758 309.242 380 316L349 347C342.901 353.099 335.974 358.938 331 366M351 366C361.234 365.879 367.242 356.758 374 350L405 319C411.099 312.901 418.026 307.062 423 300C412.766 300.121 406.758 309.242 400 316L369 347C362.901 353.099 355.974 358.938 351 366M371 366C381.234 365.879 387.242 356.758 394 350L425 319C431.099 312.901 438.026 307.062 443 300C432.766 300.121 426.758 309.242 420 316L389 347C382.901 353.099 375.974 358.938 371 366M391 366C401.234 365.879 407.242 356.758 414 350L445 319C451.099 312.901 458.026 307.062 463 300C452.766 300.121 446.758 309.242 440 316L409 347C402.901 353.099 395.974 358.938 391 366M411 366C421.234 365.879 427.242 356.758 434 350L465 319C471.099 312.901 478.026 307.062 483 300C472.766 300.121 466.758 309.242 460 316L429 347C422.901 353.099 415.974 358.938 411 366M511 306C498.591 315.455 488.021 327.979 477 339C468.353 347.647 458.047 355.996 451 366C459.774 365.896 464.133 359.867 470 354L500 324C504.377 319.622 513.659 313.045 511 306M511 326C502.965 332.122 496.131 339.869 489 347C482.901 353.099 475.974 358.938 471 366C478.921 365.906 482.635 361.365 488 356C493.332 350.668 498.697 345.365 503.996 340C507.666 336.284 513.134 331.653 511 326M511 346C502.042 352.825 487.142 364.012 487 376C494.305 370.854 500.883 363.599 506.906 357C509.82 353.807 512.643 350.353 511 346M511 366C502.042 372.825 487.142 384.012 487 396C494.305 390.854 500.883 383.599 506.906 377C509.82 373.807 512.643 370.353 511 366M24 372C16.2674 379.733 1.7809 389.364 1 401C8.03762 397.349 13.4887 390.612 18.9954 385C22.6993 381.225 26.2496 377.426 24 372M511 386C502.042 392.825 487.142 404.012 487 416C494.305 410.854 500.883 403.599 506.906 397C509.82 393.807 512.643 390.353 511 386M24 392C16.2674 399.733 1.7809 409.364 1 421C8.03763 417.349 13.4887 410.612 18.9954 405C22.6993 401.225 26.2496 397.426 24 392M511 406C502.042 412.825 487.142 424.012 487 436C494.305 430.854 500.883 423.599 506.906 417C509.82 413.807 512.643 410.353 511 406M24 412C16.2674 419.733 1.7809 429.364 1 441C8.03763 437.349 13.4887 430.612 18.9954 425C22.6993 421.225 26.2496 417.426 24 412M511 426C505.168 430.443 500.17 435.82 495 441C491.326 444.681 487.816 447.712 487 453C479.448 454.165 474.158 461.842 469 467L441 495C435.717 500.283 429.472 505.308 426 512C435.445 511.366 441.739 502.261 448 496L495 449C500.089 443.911 514.125 434.278 511 426z"/>
<path style="fill:#000000; stroke:none;" d="M511 431C499.605 445.955 484.287 458.713 471 472C458.037 484.963 445.592 499.882 431 511C442.088 515.653 448.795 508.207 456 501L500 457C507.469 449.532 515.874 442.616 511 431z"/>
<path style="fill:#444440; stroke:none;" d="M24 432C16.2674 439.733 1.7809 449.364 1 461C8.03763 457.349 13.4887 450.612 18.9954 445C22.6993 441.225 26.2496 437.426 24 432M511 446C495.681 457.672 482.611 473.389 469 487C461.362 494.638 451.01 502.343 446 512C454.348 511.44 459.43 504.57 465 499L499 465C503.529 460.471 513.767 453.33 511 446z"/>
<path style="fill:#000000; stroke:none;" d="M511 451C502.654 461.953 491.726 471.274 482 481C471.95 491.05 462.317 502.377 451 511C454.733 512.566 462.053 513.048 465.715 510.972C470.696 508.148 474.964 502.036 479 498L501 476C508.207 468.795 515.653 462.088 511 451z"/>
<path style="fill:#444440; stroke:none;" d="M1 481C6.53911 478.126 10.6235 473.376 15 469C20.1398 463.86 25.8074 458.952 30 453C21.5866 452.609 17.6008 458.397 12 464C6.93032 469.072 1.50539 473.469 1 481M1 501C8.81738 496.945 14.8268 489.173 21 483C30.6003 473.4 42.1775 464.105 50 453C41.6398 453.099 37.6226 458.377 32 464L10.0008 486C5.48558 490.537 1.44484 494.371 1 501M6 512C14.7288 511.414 20.1931 503.807 26 498L54 470C59.4599 464.54 65.5464 459.322 70 453C60.8338 453.108 56.1017 459.898 50 466L21 495C15.7174 500.283 9.47162 505.308 6 512M26 512C34.7288 511.414 40.1931 503.807 46 498L74 470C79.4599 464.54 85.5464 459.322 90 453C80.8338 453.108 76.1017 459.898 70 466L41 495C35.7174 500.283 29.4716 505.308 26 512M46 512C54.7288 511.414 60.1931 503.807 66 498L94 470C99.4599 464.54 105.546 459.322 110 453C100.834 453.108 96.1017 459.898 90 466L61 495C55.7174 500.283 49.4716 505.308 46 512M66 512C74.7288 511.414 80.1931 503.807 86 498L114 470C119.46 464.54 125.546 459.322 130 453C120.834 453.108 116.102 459.898 110 466L81 495C75.7174 500.283 69.4716 505.308 66 512M86 512C94.7288 511.414 100.193 503.807 106 498L134 470C139.46 464.54 145.546 459.322 150 453C140.834 453.108 136.102 459.898 130 466L101 495C95.7174 500.283 89.4716 505.308 86 512M106 512C114.729 511.414 120.193 503.807 126 498L154 470C159.46 464.54 165.546 459.322 170 453C160.834 453.108 156.102 459.898 150 466L121 495C115.717 500.283 109.472 505.308 106 512M126 512C134.729 511.414 140.193 503.807 146 498L174 470C179.46 464.54 185.546 459.322 190 453C180.834 453.108 176.102 459.898 170 466L141 495C135.717 500.283 129.472 505.308 126 512M146 512C154.729 511.414 160.193 503.807 166 498L194 470C199.46 464.54 205.546 459.322 210 453C200.834 453.108 196.102 459.898 190 466L161 495C155.717 500.283 149.472 505.308 146 512M166 512C174.729 511.414 180.193 503.807 186 498L214 470C219.46 464.54 225.546 459.322 230 453C220.834 453.108 216.102 459.898 210 466L181 495C175.717 500.283 169.472 505.308 166 512M186 512C194.729 511.414 200.193 503.807 206 498L234 470C239.46 464.54 245.546 459.322 250 453C240.834 453.108 236.102 459.898 230 466L201 495C195.717 500.283 189.472 505.308 186 512M206 512C214.729 511.414 220.193 503.807 226 498L254 470C259.46 464.54 265.546 459.322 270 453C260.834 453.108 256.102 459.898 250 466L221 495C215.717 500.283 209.472 505.308 206 512M226 512C234.729 511.414 240.193 503.807 246 498L274 470C279.46 464.54 285.546 459.322 290 453C280.834 453.108 276.102 459.898 270 466L241 495C235.717 500.283 229.472 505.308 226 512M246 512C254.729 511.414 260.193 503.807 266 498L294 470C299.46 464.54 305.546 459.322 310 453C300.834 453.108 296.102 459.898 290 466L261 495C255.717 500.283 249.472 505.308 246 512M266 512C274.729 511.414 280.193 503.807 286 498L314 470C319.46 464.54 325.546 459.322 330 453C320.834 453.108 316.102 459.898 310 466L281 495C275.717 500.283 269.472 505.308 266 512M286 512C294.729 511.414 300.193 503.807 306 498L334 470C339.46 464.54 345.546 459.322 350 453C340.834 453.108 336.102 459.898 330 466L301 495C295.717 500.283 289.472 505.308 286 512M306 512C314.729 511.414 320.193 503.807 326 498L354 470C359.46 464.54 365.546 459.322 370 453C360.834 453.108 356.102 459.898 350 466L321 495C315.717 500.283 309.472 505.308 306 512M326 512C334.729 511.414 340.193 503.807 346 498L374 470C379.46 464.54 385.546 459.322 390 453C380.834 453.108 376.102 459.898 370 466L341 495C335.717 500.283 329.472 505.308 326 512M346 512C354.729 511.414 360.193 503.807 366 498L394 470C399.46 464.54 405.546 459.322 410 453C400.834 453.108 396.102 459.898 390 466L361 495C355.717 500.283 349.472 505.308 346 512M366 512C374.729 511.414 380.193 503.807 386 498L414 470C419.46 464.54 425.546 459.322 430 453C420.834 453.108 416.102 459.898 410 466L381 495C375.717 500.283 369.472 505.308 366 512M386 512C394.729 511.414 400.193 503.807 406 498L434 470C439.46 464.54 445.546 459.322 450 453C440.834 453.108 436.102 459.898 430 466L401 495C395.717 500.283 389.472 505.308 386 512M406 512C414.729 511.414 420.193 503.807 426 498L454 470C459.46 464.54 465.546 459.322 470 453C460.834 453.108 456.102 459.898 450 466L421 495C415.717 500.283 409.472 505.308 406 512M511 466C500.775 473.79 492.078 483.922 483 493C477.122 498.878 469.862 504.555 466 512C473.091 511.524 477.191 506.801 482 502L502.999 481C506.868 477.112 513.281 472.042 511 466z"/>
<path style="fill:#000000; stroke:none;" d="M511 471C505.436 478.303 498.48 484.52 492 491C485.194 497.806 478.669 505.157 471 511C483.107 516.08 490.289 506.711 498 499C505.937 491.063 516.272 483.565 511 471z"/>
<path style="fill:#444440; stroke:none;" d="M511 486C502.259 492.66 491.093 502.183 486 512C494.873 511.405 501.25 503.196 506.906 497C509.82 493.807 512.643 490.353 511 486z"/>
<path style="fill:#000000; stroke:none;" d="M511 491C505.368 498.391 498.391 505.368 491 511C504.597 516.706 516.705 504.597 511 491z"/>
<path style="fill:#444440; stroke:none;" d="M511 506C508.765 507.886 507.381 509.431 506 512C509.979 511.69 512.621 510.267 511 506z"/>
<path style="fill:#000000; stroke:none;" d="M511 511L512 512L511 511z"/>
</svg>
