<?xml version="1.0" standalone="yes"?>
<svg xmlns="http://www.w3.org/2000/svg" width="1200" height="162">
<path style="fill:#ffffff; stroke:none;" d="M0 0L0 69C2.10154 65.1393 3.17713 60.8396 5.4537 57C12.3326 45.3981 24.3286 35.0477 38 33C33.8933 40.5106 25.306 43.2803 22 52C32.7437 47.5922 43.503 42.9681 54 38L54 70C54 74.0639 55.1267 80.2202 52.3966 83.6096C50.189 86.3503 46.1222 87.6499 43 89C37.9304 91.1922 33.0959 93.8784 28 96C34.8022 105.214 45.2902 106.448 56 105.961C59.5569 105.799 65.6281 105.308 67.3966 101.606C68.3222 99.668 67.9957 97.0795 68 95C68.0115 89.4374 69.5256 81.0835 66.9722 76.0008C65.3702 72.8119 60.1662 70.3802 59.6312 66.8696C59.0801 63.2539 65.4504 60.004 66.9722 56.9961C69.544 51.9131 68 43.5798 68 38C52.6366 36.016 38.2584 29.0632 23 27.2932C13.051 26.1391 10.8336 33.4247 15 41L14 42C-1.39145 34.0102 1.81787 14.3968 17 7.95525C34.4713 0.542389 51.5873 16.7352 69 16.8665C73.5956 16.9012 79.7519 12.443 75.3958 7.65277C73.2724 5.31769 69.9118 5.1514 67 5L67 2C73.8696 2.29572 81.7571 3.63519 86.4421 9.18518C96.89 21.562 83.8536 36.2592 71 38C71 43.6111 69.2427 52.8157 72.0278 57.8295C74.2812 61.8863 78.8506 63.7576 81 68C67.6452 73.9528 71 87.6854 71 100C79.4613 95.6077 81.3878 85.317 89 81C87.7305 97.0633 79.8426 112.154 65 119.623C40.1592 132.123 5.25471 116.386 1 88C-1.7007 94.4361 0 104.049 0 111L0 162L1200 162L1200 0L0 0z"/>
<path style="fill:#000000; stroke:none;" d="M67 2L67 5C69.9932 5.30859 73.3952 5.80133 75.3773 8.39429C78.7312 12.7818 73.0187 16.6736 69 16.7207C50.9546 16.9323 34.4024 0.137772 16 7.95525C2.11253 13.8547 -2.59995 36.353 14 42L15 41C14.1762 38.8887 12.5139 36.3301 12.6165 34.0023C12.8696 28.264 19.5357 26.8923 24 27.6188C38.8983 30.0434 52.7839 36.7891 68 38C68 43.3423 69.423 51.1207 66.9722 55.9992C65.2034 59.5203 59.4597 62.0616 58.9213 66C58.5703 68.567 61.4506 70.506 63 72.0895C65.6178 74.7649 67.6073 77.1635 67.9414 81C68.3831 86.0737 69.8077 97.2286 66.9722 101.606C64.6775 105.148 58.8181 105.787 55 105.961C43.9865 106.461 36.0149 103.648 28 96C33.9244 94.2933 39.3544 91.0423 45 88.5756C47.6801 87.4046 51.3183 86.2021 52.9722 83.6096C55.164 80.1739 54 73.9025 54 70L54 38C43.2958 41.6437 31.8242 46.4091 22 52C23.9693 48.4669 26.1077 45.0812 29.0934 42.3002C32.4138 39.2072 36.5307 37.4646 38 33C31.4268 33.5775 25.3736 36.4416 20 40.2099C10.6789 46.7464 3.07363 56.729 0.668981 68C-4.99651 94.5551 13.652 123.28 42 123.985C49.3357 124.168 56.0968 123.612 63 120.931C70.5321 118.007 76.7683 112.659 81.2508 106C86.2675 98.5473 88.6172 89.9161 89 81C84.7946 82.4355 83.4241 86.5118 80.9568 90C78.1623 93.9509 74.8282 97.0812 71 100C71 93.2724 68.8603 82.0956 72.0278 76.0394C73.8668 72.5231 77.7929 70.1216 81 68C79.4479 62.9104 74.4358 61.3896 72.0278 56.9105C69.388 52.0003 71 43.4509 71 38C84.4976 36.8961 97.6127 20.7629 86.4421 8.32947C81.7407 3.09648 73.6299 2.13684 67 2M905 2L905 5C907.993 5.30861 911.395 5.80133 913.377 8.39429C916.731 12.7818 911.019 16.6736 907 16.7207C889.512 16.9257 871.824 0.80571 854 8.53317C839.151 14.9711 837.016 35.8494 852 43C852.124 38.3873 847.691 34.359 852.153 30.4336C855.79 27.2337 860.681 28.0855 865 29.0147C874.113 30.9754 882.902 34.2643 892 36.3488C895.467 37.1432 901.81 37.0562 903.972 40.3171C906.744 44.498 905.57 55.2148 902.682 58.9853C900.92 61.2863 896.207 63.8356 896.207 67.0502C896.207 72.1723 904.416 74.9684 904.941 81C905.394 86.2001 906.931 98.1351 903.972 102.581C902.046 105.475 897.176 106.242 894 106.7C882.792 108.316 873.382 104.145 865 97C870.971 95.2798 876.457 92.0202 882 89.2469C884.546 87.9729 888.276 86.7929 889.972 84.3627C892.215 81.1498 891 74.7267 891 71L891 38C880.641 42.0192 870.67 47.9274 860 51C864.125 44.9601 872.833 39.6812 875 33C845.636 35.5799 830.168 70.7389 840.454 96C847.031 112.153 862.308 121.307 879 123.278C886.199 124.128 894.314 122.993 901 120.121C907.871 117.17 913.866 112.067 918.211 106C923.52 98.588 925.925 90.0274 926 81C921.807 82.4313 920.368 86.5542 917.841 89.9992C915.004 93.8679 911.585 96.8592 908 100C908 93.174 906.218 83.4389 908.603 77.0008C910.176 72.7549 916.494 70.4516 917.079 66.0502C917.582 62.2628 911.595 59.1213 910.028 55.9992C907.578 51.119 909 43.3436 909 38C922.541 36.8925 935.658 20.8132 924.442 8.32947C919.741 3.09647 911.63 2.13684 905 2M96 23C104.089 29.0278 102 38.9275 102 48C102 61.677 102.464 75.3949 101.17 89C100.751 93.4001 102.006 98.7822 100.397 102.961C99.0346 106.497 95.2216 108.978 93 112C95.6671 112.138 96.1074 111.911 98 110C101.719 113.709 106.75 120.272 112 121.709C114.594 122.419 116.898 120.685 119 119.419C124.086 116.357 130.234 113.413 133 108C130.31 108.531 128.98 109.116 127 111C124.651 108.623 121.787 106.225 120.603 103C119.487 99.9598 120 96.181 120 93L120 73C120 69.0493 118.779 59.8791 125.019 59.8765C129.941 59.8746 135.537 66.4808 135.941 71.0147C136.673 79.2136 136 87.7676 136 96C136 105.684 136.674 116.863 132.867 126C130.17 132.471 122.077 134.011 120 140C125.347 140 130.829 140.398 136 138.779C149.428 134.576 154.319 121.861 155.035 109C155.847 94.4333 153.918 78.3623 156.148 64.0039C156.747 60.1509 159.899 57.6575 161 54C158.463 54.5997 155.604 56.1153 153 55.1875C147.681 53.2925 143.961 45.1377 138 45.1281C132.33 45.119 124.471 53.7882 120 57L120 5C112.315 6.80588 98.2997 15.1639 96 23M742 23C749.011 28.2249 748 35.0275 748 43L748 83C748 88.8899 749.181 96.2446 747.682 101.961C746.478 106.553 741.463 108.462 740 113C741.872 112.676 744.115 111.93 746.005 112.483C750.89 113.912 753.253 119.726 758 121.549C761.016 122.706 763.542 120.908 766 119.328C770.602 116.369 777.217 113.414 779 108C777.128 108.256 774.871 108.91 773 108.378C764.298 105.904 767 91.7139 767 85L767 5C759.277 6.49342 744.292 15.2069 742 23M341 7C337.63 12.6885 332.615 15.5436 326 12.9954C323.536 12.0462 320.897 9.46054 318.09 9.90587C315.505 10.3158 313.573 13.2113 311.95 15.0046C307.382 20.0508 302.413 25.0947 299 31C302.433 31.127 305.167 28.2089 308.424 28.5841C313.242 29.1391 317.938 32.3178 323 33L323 83C313.31 67.1708 304.295 50.9436 294.799 35C290.513 27.8032 286.84 19.1284 280.816 13.1883C272.964 5.44621 259.259 6.66771 253.144 16.0401C250.008 20.8472 250.004 26.4813 250 32C253.689 30.6623 254.985 25.4112 259.015 24.9213C262.339 24.5173 265.369 28.2339 266.397 31.0008C268.499 36.6639 267 45.0049 267 51C261.051 51.0499 254.516 51.9165 250.703 57.1049C244.528 65.508 248.749 78.9303 259 81C257.979 73.9672 259.26 70.424 267 70L267 96C260.017 96.1449 252.317 97.9155 247.329 103.188C238.878 112.124 240.589 127.67 252 133.08C256.155 135.05 260.512 134.997 265 135C263.174 132.556 260.35 131.837 258.148 129.722C253.959 125.698 255.536 119.817 261.015 117.934C264.16 116.853 267.304 118.039 270 119.683C272.118 120.975 274.267 123.351 277 122.655C279.362 122.054 281.335 119.66 282.961 117.995C287.551 113.295 293.224 107.954 296 102L295 101C292.403 102.33 291.409 103.436 290 106C283.846 101.134 277.943 97.6496 270 97L270 35C284.118 56.404 295.824 79.753 308.579 102C312.562 108.948 317.083 123.296 326 124L326 33C339.901 30.9164 346.482 20.3774 344 7L341 7M525 28C528.23 26.9091 530.544 22.2891 534 22.3457C537.759 22.4072 539.546 26.9177 539.891 30C540.876 38.795 540 48.1493 540 57C533.619 57.2916 527.34 59.2833 523.742 65.0046C518.504 73.3355 523.325 84.9224 533 86C531.042 79.0084 531.506 75.4651 540 75L540 100C540 103.636 540.799 108.463 539.397 111.895C537.953 115.428 533.763 116.643 531.214 119.213C525.482 124.992 524.586 134.99 528.417 141.999C537.486 158.589 562.516 151.097 577 148.2C582.228 147.154 592.187 143.449 596.392 148.434C599.566 152.196 595.116 156.374 594 160C599.505 158.723 604.898 156.73 608.347 151.96C614.702 143.173 610.801 130.963 601 127.119C585.123 120.892 565.205 129.881 549 131.38C544.222 131.823 536.856 129.055 537.582 123.004C538.581 114.667 549.979 114.972 556 115.001C568.61 115.061 580.395 120.907 593 120.995C598.568 121.034 604.65 120.203 608.581 115.786C614.597 109.026 612 95.368 612 87L612 45C612 39.3653 610.557 31.3521 612.603 26.0394C613.965 22.5032 617.778 20.0218 620 17C616.904 16.9234 613.437 20.0611 610.576 19.0031C605.694 17.198 602.613 9.68634 597 9.74768C594.4 9.77611 592.012 11.8891 590 13.2948C585.338 16.5511 580.945 20.1828 576 23L576 10L574 10L574 115C571.074 114.175 566.769 113.758 564.603 111.436C560.453 106.986 563.375 94.728 562.83 89C561.318 73.1056 562 56.9775 562 41C562 33.3515 563.274 23.9886 559.431 17.0154C550.187 0.242432 525.744 11.7664 525 28M948 13.1613C944.556 14.2633 937.225 20.0586 937.206 24.0008C937.185 28.293 945.487 37.285 950 35.8387C953.329 34.772 961.364 28.703 961.364 24.8302C961.364 20.3523 952.567 11.7001 948 13.1613z"/>
<path style="fill:#ffffff; stroke:none;" d="M581.019 25.0864C577.724 25.8532 576.327 28.9563 576.059 32.0039C575.425 39.1956 572.764 60.6467 584.995 58.5617C593.531 57.1067 591.013 45.2765 591 39C590.995 36.3357 591.216 33.4556 589.972 31.0039C588.451 28.0033 584.721 24.2251 581.019 25.0864z"/>
<path style="fill:#000000; stroke:none;" d="M398 115C401.791 115.223 403.581 113.884 406 111C410.044 114.293 417.29 123.631 423 122.6C428.532 121.602 432.277 114.561 438 114.43C444.899 114.272 449.847 124.061 457 122.907C460.168 122.397 463.266 119.839 466 118.281C471.691 115.037 477.368 111.743 483 108.397C485.75 106.763 489.705 105.124 490.682 101.79C494.095 90.139 489.273 75.9995 491.148 64.0008C492.011 58.4771 498.085 56.6032 498 51C495.544 51.9055 493.546 52.7657 490.998 51.5779C487.166 49.7907 483.777 43.9223 479 45.7423C475.223 47.1811 468.359 52.9714 467.346 57C466.365 60.9016 471.581 64.8538 471.941 69C473.14 82.7819 472 97.1619 472 111C467.675 108.138 460.671 105.461 458.028 100.816C456.299 97.777 457 93.3574 457 90C457 80.8275 453.645 65.743 462 60C459.989 55.6866 451.61 43.9735 446 45.3449C441.081 46.5475 435.535 53.5379 432 57C433.779 59.569 436.32 62.0295 437.397 65C438.991 69.3913 438 75.3882 438 80C438 90.0558 439.338 101.181 437 111C432.996 107.585 426.575 104.63 424.028 99.9097C422.213 96.5459 423 91.6878 423 88C423 78.4947 425.082 66.1818 422.566 57C420.435 49.2207 408.126 47.0207 407.546 39.0147C407.292 35.497 411.055 32.329 412 29C400.926 31.2931 387.635 40.9018 394.179 54C397.329 60.3049 403.584 63.7285 405.316 71C407.115 78.55 406 87.2795 406 95C406 98.4446 406.635 102.704 405.397 105.985C404.041 109.575 400.287 112.006 398 115M162 110C162.472 111.416 162.814 111.814 164 113C165.804 111.974 167.829 110.433 170.005 110.427C178.087 110.404 183.135 121.842 191 123.069C194.51 123.616 197.484 120.594 200 118.6C206.094 113.769 221.731 105.541 221 97C216.292 99.6823 210.401 106.675 205 107.272C199.533 107.876 187.461 97.0223 189.623 91.1844C190.752 88.1345 194.506 86.3439 197 84.5756C204.142 79.5115 211.346 74.2614 219 70C217.152 60.4439 208.673 52.3941 204 44C195.277 46.5658 186.988 52.3707 179 56.6914C175.914 58.3606 171.115 59.7375 169.603 63.213C168.264 66.2927 169 70.7177 169 74C169 86.1917 172.605 101.823 162 110M335 113C336.78 111.965 338.849 110.329 341.005 110.287C349.01 110.13 354.404 121.557 362 123.125C365.507 123.849 368.493 120.787 371 118.799C376.017 114.822 381.018 110.821 385.999 106.8C389.585 103.905 392.689 101.833 392 97C387.557 99.7668 381.332 107.022 376 107.324C373.665 107.456 371.729 105.71 370 104.39C366.184 101.478 357.633 96.2121 361.032 90.3256C364.679 84.0112 376.12 79.337 382 75.1412C384.273 73.5193 388.429 71.5793 389.263 68.6744C390.038 65.9743 387.691 63.0974 386.329 61C382.622 55.2912 378.807 49.6426 375 44C366.231 46.7749 358.177 52.5692 350 56.7554C346.948 58.318 342.138 60.0484 340.603 63.3789C339.122 66.5927 340 71.5442 340 75C340 83.5614 340.702 92.4587 339.941 100.985C339.505 105.877 334.923 108.123 335 113M621 112C623.164 111.257 625.651 109.887 628.002 110.352C635.368 111.807 639.718 121.098 647 122.788C650.229 123.537 653.401 120.954 656 119.4C663.11 115.149 671.452 111.36 677.852 106.096C682.88 101.96 681 92.8411 681 87L681 68C680.999 65.1663 681.431 61.751 679.972 59.1844C677.797 55.3569 672.488 52.7854 669 50.2901C666.399 48.4296 663.33 45.2864 660 44.9576C655.357 44.499 648.888 49.7789 645 52.0008C640.106 54.7978 631.233 57.8417 628.028 62.6096C626.066 65.5278 627 70.6623 627 74C627 82.5711 627.685 91.4622 626.941 100C626.51 104.948 622.37 107.493 621 112M797 124C804.356 120.52 816.235 114.368 820 107L813 110C807.263 98.4681 798.541 87.6968 791.33 77C787.98 72.0305 782.981 67.2394 783 61C786.421 63.2351 789.846 65.3432 794 65.811C806.341 67.2005 812.775 54.5443 813 44C808.717 45.8939 805.029 49.4891 800 48.7569C796.545 48.2539 792.716 43.9323 789.21 45.2554C784.974 46.8535 781.398 55.3678 779.003 59C775.824 63.8215 768.31 72.0114 768.502 78C768.658 82.8595 773.754 88.1304 776.333 92C783.318 102.478 790.878 113.004 797 124M928 59L929 60C933.26 58.989 936.278 59.5171 938.142 64.0054C941.388 71.8228 939 84.6049 939 93C939 96.3872 939.672 100.7 938.397 103.91C936.756 108.039 932.349 109.587 931 114C932.651 113.456 934.79 112.331 936.58 112.672C942.396 113.779 945.035 122.405 951 122.887C953.546 123.092 956.014 120.973 958 119.666C962.35 116.803 966.684 113.912 971 111L971 109L970 108C965.347 108.88 961.454 107.958 959.603 102.998C958.274 99.4357 959 94.7402 959 91C959 80.7619 955.072 62.9314 965 57L965 55L964 54C956.019 56.5203 952.469 49.8868 948 44C941.161 46.5922 931.379 52.3851 928 59M968 60C970.254 59.2508 971.314 58.6559 973 57C975.349 59.7002 978.223 62.5441 979.411 66C980.85 70.1832 980 75.6315 980 80C980 91.0346 982.163 101.564 974 110C976.86 113.886 985.529 123.936 991 122.507C996.007 121.199 1001 114.258 1005 111C1003.22 108.431 1000.68 105.971 999.603 103C996.598 94.7186 999 81.7798 999 73C999 69.2376 997.475 60.0118 1003.06 59.3719C1008.23 58.7793 1012.56 65.6309 1012.94 70C1013.94 81.4632 1016.08 100.258 1008 109C1010.82 112.833 1018.68 121.749 1024 121.083C1026.99 120.709 1029.85 117.465 1032 115.575C1033.7 114.077 1036.06 112.322 1036.65 109.996C1037.57 106.399 1033.15 103.342 1032.32 100C1030.51 92.7425 1032 83.4655 1032 76C1032 72.0651 1030.28 57.5249 1038 59.9977C1041.27 61.0424 1045.2 64.8374 1046.4 68.0147C1047.64 71.2945 1047 75.5562 1047 79C1047 86.1315 1047.9 93.9432 1046.85 101C1046.41 103.998 1043.48 106.935 1043.92 109.961C1044.47 113.83 1051.13 118.536 1054 120.834C1055.49 122.025 1056.99 123.112 1059 122.828C1061.57 122.463 1063.95 120.149 1066 118.72C1070.72 115.432 1077.22 112.775 1079 107C1073.68 108.753 1069.8 108.01 1067.6 102C1066.29 98.4137 1067 93.7576 1067 90C1067 81.6979 1065.23 71.0828 1067.32 63.0394C1068.38 58.9494 1072.07 57.4249 1072 53C1070.24 53.9867 1068.15 55.6018 1066 55.2485C1060.05 54.2752 1057.47 45.2113 1051 45.2662C1044.05 45.3252 1039.84 54.931 1033 55.3117C1026.89 55.6521 1023.49 46.8101 1018 45.3302C1015.34 44.6127 1013 46.685 1011 48.1319C1006.73 51.2298 1002.74 54.6402 998 57C996.07 53.2757 992.168 46.6533 987.911 45.3063C985.339 44.4929 982.968 46.5103 981 47.8642C976.133 51.2133 969.748 54.0568 968 60M1135 97C1130.23 99.7197 1124.46 106.586 1119 107.296C1113.34 108.033 1101.17 97.2828 1103.61 91.1836C1104.94 87.8554 1109.21 85.6722 1112 83.7199C1118.81 78.9596 1125.74 74.0408 1133 70C1131.15 60.444 1122.67 52.394 1118 44C1109.22 46.5351 1101.02 52.3532 1093 56.6914C1090.13 58.2461 1085.87 59.5071 1084.03 62.3904C1081.24 66.7607 1083 75.9781 1083 81C1083 88.3135 1080.76 100.031 1083.6 106.816C1084.61 109.215 1086.99 110.666 1089 112.14C1093.5 115.43 1098.74 120.535 1104 122.434C1107.92 123.846 1111.19 120.243 1114 118C1120.21 113.047 1134.63 105.498 1135 97M1151 91C1144.7 100.051 1132.31 112.777 1143.22 123.772C1144.94 125.502 1146.76 126.237 1149 127C1148.67 125.376 1148.02 123.625 1147.86 121.98C1146.8 111.336 1159.84 117.717 1164 119.904C1165.28 120.574 1166.57 120.881 1168 120.622C1170.49 120.172 1172.87 118.274 1175 117C1180.51 113.701 1190.46 110.011 1193.97 104.482C1195.18 102.584 1194.98 100.149 1195 97.9992C1195.03 92.8998 1196.54 84.6258 1193.4 80.2894C1191.23 77.3052 1185.22 75.03 1185.02 70.9606C1184.83 67.4064 1189.24 63.1872 1190.65 60C1192.95 54.8222 1193 49.5516 1193 44C1189.09 45.8791 1185.75 50.1165 1181 49.5008C1176.21 48.8796 1173.12 43.6439 1168 45.0278C1161.89 46.6815 1155.51 51.4614 1150 54.5756C1147.55 55.9627 1144.41 57.1416 1142.6 59.3904C1140.32 62.2214 1141 66.6115 1141 70C1141 80.1365 1141.04 86.0373 1151 91M685 60C687.254 59.2508 688.314 58.6559 690 57C698.947 66.3831 697 76.8173 697 89C697 93.1947 698.03 99.0939 695.972 102.91C694.299 106.013 690.777 108.002 688 110C688.472 111.416 688.814 111.814 690 113C698.212 109.682 701.029 118.469 708 120.904C710.985 121.946 713.562 120.196 716 118.651C721.168 115.377 728.19 112.154 730 106C724.508 108.172 718.166 108.006 716.318 100.961C715.199 96.6953 716 91.3851 716 87L716 60C722.54 65.3554 732.47 67.8502 738.351 59.956C741.394 55.872 741.821 50.7841 743 46C740.069 46.2915 736.928 47.6429 734 47.3765C731.416 47.1415 728.938 45.0004 726.286 45.7361C721.885 46.9565 717.959 53.2228 716 57C713.166 53.5201 709.516 47.6516 705 46.3056C702.411 45.5338 700.052 47.3535 698 48.6721C693.398 51.6296 686.783 54.5868 685 60z"/>
<path style="fill:#ffffff; stroke:none;" d="M25 93C27.4322 92.2952 30.4187 91.5821 31.9722 89.3619C33.9616 86.5188 33 81.2816 33 78L33 51C28.9386 52.1108 22.5975 53.6053 20.179 57.3904C18.4645 60.0737 19.0012 63.9718 19 67C18.9963 76.659 20.0634 84.51 25 93M870 51C866.464 52.6736 861.283 53.9479 858.938 57.2747C856.829 60.267 857.017 64.5188 857.001 68C856.957 77.1697 858.345 84.9934 863 93C865.674 92.2251 869.089 91.387 870.397 88.6096C871.783 85.6647 871 81.1699 871 78C871 69.9927 873.105 58.3994 870 51M360 55L360 85C365.09 83.1364 369.521 80.0193 374 77C370.471 69.5403 365.426 61.2229 360 55M646 55L646 86C646 90.1059 644.925 96.1151 647.028 99.8156C649.587 104.32 656.469 107.847 661 110L661 79C661 75.0959 662.14 68.963 659.972 65.5147C657.197 61.0994 650.357 57.6894 646 55M189 56L189 85C194.01 83.104 198.538 79.9525 203 77C199.117 70.0256 194.736 61.5575 189 56M1103 56L1103 85C1107.62 83.2521 1111.64 80.3191 1116 78C1114.56 70.5769 1108.4 61.234 1103 56M1160 56C1160 61.6697 1158.2 71.0917 1161.6 75.9375C1167.98 85.0239 1180.33 69.2032 1184 64C1173.64 64.4381 1168.05 62.9571 1160 56M576 60L576 74C581.641 71.9128 585.413 71.5634 591 74L591 60C585.304 61.805 581.708 61.5094 576 60M576 116C578.676 115.885 581.439 115.751 583.996 114.852C593.318 111.574 591 99.8043 591 92C591 88.1251 592.179 81.793 589.972 78.3943C587.287 74.2582 579.713 74.2582 577.028 78.3943C575.344 80.9886 576 85.0648 576 88L576 99L576 116M1147 102C1158.02 99.9548 1167.14 101.35 1174 111C1176.52 104.993 1175.73 84.9949 1166 85.7886C1158.84 86.3728 1150.78 96.639 1147 102z"/>
</svg>
