<?xml version="1.0" standalone="yes"?>
<svg xmlns="http://www.w3.org/2000/svg" width="797" height="802">
<path style="fill:#000000; stroke:none;" d="M0 0L0 802L707 802C696.16 796.78 684.496 795.05 674 788.302C650.458 773.167 632.587 749.619 613 730C572.691 689.626 533.268 648.38 493 608C505.283 603.503 516.83 593.06 527 584.997C549.529 567.134 571.029 547.361 587.989 524C593.961 515.775 601.147 506.884 604 497C610.692 501.714 616.22 508.22 622 514L653 545L749 641C767.844 659.844 793.654 680.282 796 709C798.292 703.538 797 695.887 797 690L797 648L797 503L797 0L0 0z"/>
<path style="fill:#333333; stroke:none;" d="M302 1.42438C283.909 3.79974 265.928 4.54272 248 8.65125C193.215 21.2059 142.19 47.7205 101 86.0895C71.6465 113.433 46.4905 147.283 30.1389 184C14.1269 219.954 3.78524 257.635 1.08951 297C-6.66864 410.291 48.3573 521.29 143 583.996C171.934 603.167 204.463 617.309 238 626.116C279.34 636.972 322.81 638.401 365 632.718C468.353 618.795 560.866 548.899 605.219 455C628.431 405.859 638.625 350.234 634.911 296C625.652 160.808 527.458 43.499 396 10.6265C376.851 5.83801 357.639 3.25671 338 1.91052C326.198 1.1015 313.816 -0.127136 302 1.42438z"/>
<path style="fill:#000000; stroke:none;" d="M294 77.4244C250.125 83.1879 209.483 95.3555 173 121.427C146.333 140.485 124.275 164.39 106.695 192C92.8627 213.725 83.3488 238.105 77.1265 263C71.3285 286.198 69.2818 310.239 70.9105 334C72.9993 364.474 79.4942 394.088 92.3086 422C137.013 519.374 242.488 575.931 348 561.718C382.414 557.082 415.701 544.504 445 525.947C466.761 512.164 486.104 494.786 502.565 475C573.432 389.815 574.859 263.653 509.845 175C494.012 153.409 474.12 134.404 452 119.344C428.918 103.63 403.136 91.4122 376 84.6265C349.957 78.1143 320.854 73.8968 294 77.4244z"/>
<path style="fill:#333333; stroke:none;" d="M604 497C597.358 512.87 585.42 527.202 574.155 540C551.598 565.625 523.367 591.834 493 608C499.469 617.191 508.073 625.073 516 633L550 667C581.32 698.32 611.676 730.676 643 762C665.229 784.229 691.3 805.855 725 801.714C742.337 799.583 756.899 790.116 769 778C792.101 754.871 804.382 723.673 791.796 692C782.933 669.696 762.541 653.541 746 637L656 547L622 513C616.516 507.516 611.096 500.309 604 497z"/>
<path style="fill:#000000; stroke:none;" d="M796 728C793.97 752.857 773.075 777.589 753 790.655C745.046 795.832 735.625 800.56 726 801C732.194 803.599 741.314 802 748 802L797 802L797 751C797 744.049 798.701 734.436 796 728z"/>
</svg>
